# xmcd CD database file
#
# Track frame offsets:
#	150
#	19105
#	35237
#	51437
#	69185
#	89567
#	111037
#	128180
#	145765
#	163137
#	176860
#	199307
#	216427
#	242997
#	263387
#	279287
#	300712
#
# Disc length: 4267 seconds
#
# Revision: 2
# Processed by: cddbd v1.5.2PL0 Copyright (c) Steve Scherf et al.
# Submitted via: CDex 1.70beta2
#
DISCID=0210a911
DTITLE=Various Artist - 精選盤 昭和の流行歌 Vol 20 (あずさ2号)
DYEAR=1900
DGENRE=歌謡曲
TTITLE0=ざんげの値打ちもない - 北原  ミレイ
TTITLE1=北国行きで - 朱里  エイコ
TTITLE2=ジョニィへの伝言 - ペドロ ＆ カプリシャス
TTITLE3=五番街のマリーへ - ペドロ ＆ カプリシャス
TTITLE4=あなた - 小坂  明子
TTITLE5=精霊流し - グレープ
TTITLE6=石狩挽歌 - 北原  ミレイ
TTITLE7=北へ帰ろう - 徳久  広司
TTITLE8=無縁坂 - グレープ
TTITLE9=中の島ブルース - 秋庭  豊 と アローナイツ
TTITLE10=あずさ2号 - 狩  人
TTITLE11=おもいで酒 - 小林  幸子
TTITLE12=関白宣言 - さだ  まさし
TTITLE13=すずめ - 増田  けい子
TTITLE14=バス・ストップ - 平  浩二
TTITLE15=雪  椿 - 小林  幸子
TTITLE16=雨酒場 - 香西  かおり
EXTD=
EXTT0=
EXTT1=
EXTT2=
EXTT3=
EXTT4=
EXTT5=
EXTT6=
EXTT7=
EXTT8=
EXTT9=
EXTT10=
EXTT11=
EXTT12=
EXTT13=
EXTT14=
EXTT15=
EXTT16=
PLAYORDER=
